# xmcd
# 
# Track frame offsets:
#     150
#     19831
#     35161
#     53269
#     71009
#     87176
#     118506
#     135519
#     151640
#     165378
# 
# Disc length: 2424
# 
# Revision: 4
# Processed by: cddbd v1.5.2PL0 Copyright (c) Steve Scherf et al.
# Submitted via: fre:ac v1.0.31
# 
DISCID=7009760a
DTITLE=Jason Isbell and the 400 Unit - The Nashville Sound
DYEAR=2017
DGENRE=Country Rock
TTITLE0=Last Of My Kind
TTITLE1=Cumberland Gap
TTITLE2=Tupelo
TTITLE3=White Man's World
TTITLE4=If We Were Vampires
TTITLE5=Anxiety
TTITLE6=Molotov
TTITLE7=Chaos And Clothes
TTITLE8=Hope The High Road
TTITLE9=Something To Love
EXTD=
EXTT0=
EXTT1=
EXTT2=
EXTT3=
EXTT4=
EXTT5=
EXTT6=
EXTT7=
EXTT8=
EXTT9=
PLAYORDER=
